<svg width="26" height="25" viewBox="0 0 26 25" fill="none" xmlns="http://www.w3.org/2000/svg">
<path d="M17.1278 9.39259C17.2714 9.53127 17.3521 9.71926 17.3521 9.91526C17.3521 10.1113 17.2714 10.2993 17.1278 10.4379L12.0155 15.3688C11.8718 15.5073 11.6769 15.5851 11.4736 15.5851C11.2704 15.5851 11.0755 15.5073 10.9317 15.3688L8.88274 13.3925C8.8074 13.3248 8.74697 13.2431 8.70506 13.1524C8.66314 13.0617 8.64061 12.9637 8.63879 12.8644C8.63697 12.7651 8.65592 12.6665 8.69448 12.5744C8.73305 12.4823 8.79046 12.3986 8.86327 12.3284C8.93609 12.2582 9.02283 12.2028 9.11832 12.1656C9.2138 12.1284 9.31608 12.1101 9.41904 12.1119C9.52201 12.1136 9.62355 12.1354 9.71761 12.1758C9.81168 12.2162 9.89634 12.2745 9.96654 12.3472L11.4736 13.7998L16.044 9.3916C16.1878 9.25309 16.3827 9.17529 16.5859 9.17529C16.7891 9.17529 16.984 9.25309 17.1278 9.3916V9.39259Z" fill="#343A40"/>
<path d="M3.55566 5.97036C3.55566 5.38187 3.79804 4.81749 4.22947 4.40136C4.6609 3.98524 5.24605 3.75146 5.85619 3.75146H19.6593C20.2695 3.75146 20.8546 3.98524 21.286 4.40136C21.7175 4.81749 21.9599 5.38187 21.9599 5.97036V19.2837C21.9599 19.8722 21.7175 20.4366 21.286 20.8527C20.8546 21.2688 20.2695 21.5026 19.6593 21.5026H5.85619C5.24605 21.5026 4.6609 21.2688 4.22947 20.8527C3.79804 20.4366 3.55566 19.8722 3.55566 19.2837V5.97036ZM5.85619 5.23073C5.65281 5.23073 5.45776 5.30865 5.31395 5.44736C5.17014 5.58607 5.08935 5.7742 5.08935 5.97036V19.2837C5.08935 19.692 5.43289 20.0234 5.85619 20.0234H19.6593C19.8627 20.0234 20.0578 19.9454 20.2016 19.8067C20.3454 19.668 20.4262 19.4799 20.4262 19.2837V5.97036C20.4262 5.7742 20.3454 5.58607 20.2016 5.44736C20.0578 5.30865 19.8627 5.23073 19.6593 5.23073H5.85619Z" fill="#343A40"/>
</svg>
