<svg width="26" height="25" viewBox="0 0 26 25" fill="none" xmlns="http://www.w3.org/2000/svg">
<path d="M9.76733 21.8316C10.6144 21.8316 11.301 21.1693 11.301 20.3523C11.301 19.5353 10.6144 18.873 9.76733 18.873C8.9203 18.873 8.23364 19.5353 8.23364 20.3523C8.23364 21.1693 8.9203 21.8316 9.76733 21.8316Z" fill="#343A40"/>
<path d="M19.0854 21.8316C19.9325 21.8316 20.6191 21.1693 20.6191 20.3523C20.6191 19.5353 19.9325 18.873 19.0854 18.873C18.2384 18.873 17.5518 19.5353 17.5518 20.3523C17.5518 21.1693 18.2384 21.8316 19.0854 21.8316Z" fill="#343A40"/>
<path d="M23.2296 4.32344C23.1662 4.24802 23.0862 4.1871 22.9955 4.14504C22.9047 4.10298 22.8054 4.08083 22.7048 4.08019H8.51309L8.95615 5.39509H21.8118L19.9918 13.2845H9.7673L6.65222 3.77119C6.61852 3.67024 6.56001 3.57865 6.48167 3.50424C6.40334 3.42983 6.3075 3.3748 6.20234 3.34384L3.40763 2.51546C3.32169 2.48999 3.2314 2.48109 3.1419 2.48928C3.05241 2.49747 2.96546 2.52258 2.88602 2.56317C2.72559 2.64517 2.6055 2.78527 2.55217 2.95266C2.49884 3.12005 2.51664 3.30102 2.60165 3.45576C2.68665 3.61049 2.83191 3.72632 3.00546 3.77776L5.45254 4.50095L8.58125 14.034L7.46337 14.915L7.37475 15.0004C7.09824 15.3078 6.9415 15.6985 6.93155 16.1053C6.9216 16.5122 7.05905 16.9096 7.32022 17.2292C7.50601 17.4471 7.74209 17.6201 8.00959 17.7342C8.27708 17.8484 8.56857 17.9006 8.86072 17.8866H20.2372C20.418 17.8866 20.5914 17.8174 20.7192 17.6941C20.8471 17.5708 20.9189 17.4036 20.9189 17.2292C20.9189 17.0548 20.8471 16.8876 20.7192 16.7643C20.5914 16.641 20.418 16.5717 20.2372 16.5717H8.75166C8.67317 16.5691 8.59669 16.5471 8.52962 16.5077C8.46255 16.4683 8.40715 16.4128 8.36878 16.3467C8.33041 16.2806 8.31035 16.2061 8.31056 16.1304C8.31076 16.0546 8.33121 15.9802 8.36994 15.9143L10.0127 14.5994H20.5372C20.6947 14.6031 20.8488 14.554 20.973 14.4605C21.0973 14.367 21.1842 14.2349 21.2188 14.0866L23.3796 4.88228C23.4003 4.78426 23.3976 4.68298 23.3716 4.58614C23.3456 4.48929 23.2971 4.39945 23.2296 4.32344Z" fill="#343A40"/>
</svg>
