<svg width="25" height="25" viewBox="0 0 25 25" fill="none" xmlns="http://www.w3.org/2000/svg">
<path d="M21.0026 18.4696C20.5506 17.4368 19.8946 16.4987 19.0711 15.7075C18.2502 14.9141 17.2778 14.2814 16.2075 13.8446C16.1979 13.84 16.1883 13.8377 16.1787 13.833C17.6717 12.7929 18.6422 11.0987 18.6422 9.18722C18.6422 6.02067 15.9822 3.45508 12.6992 3.45508C9.41613 3.45508 6.75615 6.02067 6.75615 9.18722C6.75615 11.0987 7.72668 12.7929 9.21962 13.8353C9.21004 13.84 9.20045 13.8423 9.19087 13.8469C8.11729 14.2837 7.15395 14.9101 6.32719 15.7098C5.50454 16.5016 4.84864 17.4396 4.39571 18.4719C3.95076 19.4825 3.71078 20.5661 3.68878 21.6639C3.68814 21.6885 3.69263 21.7131 3.70197 21.7361C3.71132 21.759 3.72534 21.78 3.74321 21.7976C3.76107 21.8153 3.78242 21.8293 3.806 21.8389C3.82958 21.8485 3.85491 21.8534 3.88049 21.8534H5.31832C5.42376 21.8534 5.50763 21.7725 5.51003 21.6731C5.55796 19.8888 6.30083 18.2177 7.61405 16.951C8.9728 15.6405 10.7773 14.9194 12.6992 14.9194C14.6211 14.9194 16.4255 15.6405 17.7843 16.951C19.0975 18.2177 19.8404 19.8888 19.8883 21.6731C19.8907 21.7748 19.9746 21.8534 20.08 21.8534H21.5178C21.5434 21.8534 21.5688 21.8485 21.5923 21.8389C21.6159 21.8293 21.6373 21.8153 21.6551 21.7976C21.673 21.78 21.687 21.759 21.6964 21.7361C21.7057 21.7131 21.7102 21.6885 21.7096 21.6639C21.6856 20.5591 21.4484 19.4843 21.0026 18.4696ZM12.6992 13.1627C11.5992 13.1627 10.564 12.749 9.78517 11.9978C9.00635 11.2466 8.5774 10.2481 8.5774 9.18722C8.5774 8.12631 9.00635 7.12781 9.78517 6.37662C10.564 5.62543 11.5992 5.2117 12.6992 5.2117C13.7991 5.2117 14.8343 5.62543 15.6132 6.37662C16.392 7.12781 16.8209 8.12631 16.8209 9.18722C16.8209 10.2481 16.392 11.2466 15.6132 11.9978C14.8343 12.749 13.7991 13.1627 12.6992 13.1627Z" fill="#343A40"/>
</svg>
