<svg width="25" height="25" viewBox="0 0 25 25" fill="none" xmlns="http://www.w3.org/2000/svg">
<g clip-path="url(#clip0)">
<path d="M22.1602 4.45864C21.5903 3.90893 20.9136 3.47293 20.1689 3.17557C19.4242 2.8782 18.626 2.72529 17.82 2.72559C17.014 2.72588 16.216 2.87936 15.4715 3.17727C14.727 3.47518 14.0507 3.91166 13.4812 4.46179L12.7378 5.18755L12.0005 4.46336L11.9957 4.45874C11.4261 3.90928 10.7498 3.47343 10.0055 3.17607C9.26118 2.87871 8.46344 2.72566 7.65781 2.72566C6.85218 2.72566 6.05445 2.87871 5.31014 3.17607C4.56584 3.47343 3.88955 3.90928 3.31989 4.45874L2.98871 4.77816C1.83823 5.88783 1.19189 7.39285 1.19189 8.96214C1.19189 10.5314 1.83823 12.0365 2.98871 13.1461L11.7294 21.5766L12.7165 22.5741L12.74 22.5513L12.7656 22.576L13.6904 21.6348L22.4914 13.146C23.6402 12.0354 24.2853 10.5307 24.2853 8.962C24.2853 7.39326 23.6402 5.88857 22.4914 4.77803L22.1602 4.45864ZM21.4067 12.1L12.74 20.4594L4.07312 12.1C3.21026 11.2678 2.72551 10.139 2.72551 8.96203C2.72551 7.78506 3.21026 6.6563 4.07312 5.82405L4.40434 5.50462C5.26678 4.67279 6.43637 4.20528 7.65604 4.20483C8.87571 4.20439 10.0457 4.67106 10.9087 5.50226L12.7344 7.29527L14.5688 5.50462C14.9961 5.09253 15.5033 4.76564 16.0615 4.54262C16.6197 4.3196 17.2181 4.20481 17.8223 4.20481C18.4265 4.20481 19.0248 4.3196 19.583 4.54262C20.1413 4.76564 20.6485 5.09253 21.0757 5.50462L21.4069 5.824C22.2685 6.65693 22.7523 7.78547 22.7522 8.96204C22.7522 10.1386 22.2683 11.2671 21.4067 12.1Z" fill="#343A40"/>
</g>
<defs>
<clipPath id="clip0">
<rect width="24.5389" height="23.6682" fill="white" transform="translate(0.443359 0.806152)"/>
</clipPath>
</defs>
</svg>
