<svg width="25" height="25" viewBox="0 0 25 25" fill="none" xmlns="http://www.w3.org/2000/svg">
<path d="M23.4097 12.0069L12.993 1.59024C12.8629 1.4609 12.6869 1.38831 12.5034 1.38831C12.3199 1.38831 12.1439 1.4609 12.0138 1.59024L1.59716 12.0069C1.48339 12.1398 1.42394 12.3106 1.43069 12.4854C1.43744 12.6602 1.5099 12.826 1.63357 12.9497C1.75725 13.0733 1.92304 13.1458 2.09782 13.1525C2.27259 13.1593 2.44348 13.0998 2.57633 12.9861L12.4999 3.06247L22.4235 12.993C22.5564 13.1068 22.7273 13.1662 22.9021 13.1595C23.0768 13.1527 23.2426 13.0803 23.3663 12.9566C23.49 12.8329 23.5624 12.6671 23.5692 12.4924C23.5759 12.3176 23.5165 12.1467 23.4027 12.0139L23.4097 12.0069Z" fill="black"/>
<path d="M19.4443 22.2221H15.9721V15.2777H9.02761V22.2221H5.55539V12.4999L4.1665 13.8888V22.2221C4.1665 22.5905 4.31283 22.9438 4.5733 23.2042C4.83377 23.4647 5.18704 23.611 5.55539 23.611H10.4165V16.6666H14.5832V23.611H19.4443C19.8126 23.611 20.1659 23.4647 20.4264 23.2042C20.6868 22.9438 20.8332 22.5905 20.8332 22.2221V13.7221L19.4443 12.3333V22.2221Z" fill="black"/>
</svg>
