<svg width="25" height="25" viewBox="0 0 25 25" fill="none" xmlns="http://www.w3.org/2000/svg">
<path d="M12.4783 6.69092C13.085 6.69092 13.678 6.86443 14.1824 7.18952C14.6868 7.51461 15.08 7.97667 15.3122 8.51727C15.5443 9.05787 15.6051 9.65273 15.4867 10.2266C15.3684 10.8005 15.0762 11.3277 14.6472 11.7414C14.2183 12.1552 13.6717 12.437 13.0767 12.5511C12.4817 12.6653 11.8649 12.6067 11.3045 12.3828C10.744 12.1588 10.2649 11.7796 9.92786 11.2931C9.59082 10.8066 9.41092 10.2346 9.41092 9.64944C9.41184 8.86507 9.73531 8.11307 10.3104 7.55844C10.8854 7.0038 11.6651 6.69181 12.4783 6.69092ZM12.4783 11.1287C12.7816 11.1287 13.0781 11.0419 13.3304 10.8794C13.5826 10.7169 13.7791 10.4858 13.8952 10.2155C14.0113 9.94523 14.0417 9.6478 13.9825 9.36085C13.9233 9.07391 13.7773 8.81033 13.5628 8.60345C13.3483 8.39657 13.075 8.25568 12.7775 8.1986C12.48 8.14153 12.1716 8.17082 11.8914 8.28278C11.6111 8.39475 11.3716 8.58435 11.2031 8.82761C11.0345 9.07087 10.9446 9.35687 10.9446 9.64944C10.9451 10.0416 11.1068 10.4176 11.3943 10.6949C11.6818 10.9723 12.0717 11.1283 12.4783 11.1287Z" fill="#343A40"/>
<path d="M6.58385 3.96007C8.0412 2.55479 9.98658 1.72 12.0445 1.61681C14.1025 1.51362 16.1271 2.14934 17.7277 3.40129C19.3283 4.65324 20.3913 6.43266 20.7116 8.39612C21.032 10.3596 20.5869 12.3679 19.4623 14.0334L13.6675 22.6138C13.5385 22.8047 13.3622 22.9616 13.1545 23.0701C12.9468 23.1787 12.7143 23.2356 12.4781 23.2356C12.2418 23.2356 12.0093 23.1787 11.8016 23.0701C11.5939 22.9616 11.4176 22.8047 11.2886 22.6138L5.49364 14.0334C4.45014 12.4884 3.98899 10.6443 4.18747 8.81036C4.38596 6.97638 5.23202 5.26394 6.58385 3.96007ZM6.77868 13.226L12.478 21.6647L18.1774 13.226C19.922 10.6429 19.5478 7.18602 17.2878 5.00605C16.6561 4.39683 15.9063 3.91357 15.081 3.58386C14.2558 3.25415 13.3713 3.08445 12.478 3.08445C11.5848 3.08445 10.7003 3.25415 9.87502 3.58386C9.04976 3.91357 8.29992 4.39683 7.66831 5.00605C5.40824 7.18602 5.03411 10.6429 6.77868 13.226Z" fill="#343A40"/>
</svg>
