<svg width="760" height="620" viewBox="0 0 760 620" fill="none" xmlns="http://www.w3.org/2000/svg">
<path d="M664.122 0.354248H0.283203V400.69H664.122V0.354248Z" fill="#E6E6E6"/>
<path d="M645.14 50.5664H19.2656V377.006H645.14V50.5664Z" fill="white"/>
<path d="M663.839 0H0V26.5561H663.839V0Z" fill="#6930C3"/>
<path d="M20.9575 18.499C23.8444 18.499 26.1846 16.2953 26.1846 13.577C26.1846 10.8587 23.8444 8.65503 20.9575 8.65503C18.0707 8.65503 15.7305 10.8587 15.7305 13.577C15.7305 16.2953 18.0707 18.499 20.9575 18.499Z" fill="white"/>
<path d="M40.7984 18.499C43.6852 18.499 46.0254 16.2953 46.0254 13.577C46.0254 10.8587 43.6852 8.65503 40.7984 8.65503C37.9115 8.65503 35.5713 10.8587 35.5713 13.577C35.5713 16.2953 37.9115 18.499 40.7984 18.499Z" fill="white"/>
<path d="M60.6392 18.499C63.526 18.499 65.8663 16.2953 65.8663 13.577C65.8663 10.8587 63.526 8.65503 60.6392 8.65503C57.7524 8.65503 55.4121 10.8587 55.4121 13.577C55.4121 16.2953 57.7524 18.499 60.6392 18.499Z" fill="white"/>
<path d="M218.684 77.416H96.2725V202.47H218.684V77.416Z" fill="#E6E6E6"/>
<path d="M393.407 77.416H270.996V202.47H393.407V77.416Z" fill="#E6E6E6"/>
<path d="M568.13 77.416H445.718V202.47H568.13V77.416Z" fill="#E6E6E6"/>
<path d="M218.684 225.105H96.2725V350.159H218.684V225.105Z" fill="#E6E6E6"/>
<path d="M393.407 225.105H270.996V350.159H393.407V225.105Z" fill="#E6E6E6"/>
<path d="M568.13 225.105H445.718V350.159H568.13V225.105Z" fill="#E6E6E6"/>
<path d="M300.583 257.245L322.949 248.919L325.549 290.55C325.549 290.55 330.231 303.284 328.67 308.182C328.67 308.182 329.71 316.508 327.11 316.998C324.509 317.488 317.227 318.467 316.707 317.978C316.187 317.488 316.187 316.019 316.187 316.019C316.187 316.019 310.985 319.447 310.465 323.365C310.465 323.365 288.619 329.732 288.099 323.855C287.579 317.978 299.022 313.08 299.022 313.08L307.865 300.346L300.583 257.245Z" fill="white"/>
<path d="M347.915 257.245L370.281 248.919L372.882 290.55C372.882 290.55 377.563 303.284 376.003 308.182C376.003 308.182 377.043 316.508 374.442 316.998C371.842 317.488 364.56 318.467 364.039 317.978C363.519 317.488 363.519 316.019 363.519 316.019C363.519 316.019 358.318 319.447 357.798 323.365C357.798 323.365 335.952 329.732 335.432 323.855C334.912 317.978 346.355 313.08 346.355 313.08L355.197 300.346L347.915 257.245Z" fill="white"/>
<path d="M350.103 96.4794C350.103 96.4794 345.34 109.01 350.858 114.66L346.258 129.545C346.258 129.545 362.603 175.717 357.933 182.166C357.933 182.166 340.499 190.374 305.63 179.234L319.796 127.493L317.772 105.653L320.574 95.3929L326.8 94.8066C326.8 94.8066 323.065 107.998 329.914 110.051C336.763 112.103 343.445 95.1359 343.445 95.1359L350.103 96.4794Z" fill="#3F3D56"/>
<path d="M130.169 177.37L136.179 179.685L164.863 144.187L173.877 185.858L179.887 184.83C183.743 148.903 186.886 112.259 183.029 94.9276L160.765 94.0273L150.658 124.38L145.74 144.959L130.169 177.37Z" fill="white"/>
<path d="M494.928 94.6396C494.928 94.6396 486.726 105.377 487.126 109.709C487.527 114.042 492.728 184.681 492.728 184.681L504.931 185.246L501.33 134.386L504.331 120.635L511.732 184.681L526.736 185.058L513.333 101.986L510.732 94.6397L494.928 94.6396Z" fill="white"/>
<path d="M541.285 267.612C539.107 265.151 535.364 263.821 531.769 263.102C531.877 262.794 520.836 260.647 520.651 261.089L516.49 257.968L503.707 264.219L496.523 259.614L493.186 260.729C493.321 260.175 482.826 261.887 482.826 261.887C480.821 261.954 478.261 262.073 475.394 262.28C465.356 263.007 464.584 287.486 464.584 287.486C469.203 285.707 474.127 284.736 479.116 284.621L481.829 313.903C495.783 312.776 510.419 314.088 525.584 317.297L532.698 294.279L549.264 288.213C549.264 288.213 546.433 273.429 541.285 267.612Z" fill="#3F3D56"/>
<path d="M185.791 253.671C183.996 251.643 180.912 250.547 177.949 249.954C178.038 249.701 168.941 247.931 168.789 248.296L165.36 245.724L154.827 250.875L148.908 247.081L146.158 247.999C146.27 247.543 137.623 248.953 137.623 248.953C135.971 249.009 133.861 249.106 131.499 249.277C123.228 249.876 122.592 270.046 122.592 270.046C126.397 268.58 130.455 267.78 134.565 267.685L136.801 326.744C148.299 325.816 160.358 326.896 172.854 329.54L178.715 275.643L192.365 270.645C192.365 270.645 190.032 258.463 185.791 253.671Z" fill="white"/>
<path d="M631.173 593.962L548.367 609.921L546.48 609.74L473.71 602.824V515.989L562.791 501.807L627.411 508.903L627.435 509.288V509.469L631.173 593.962Z" fill="#E6E6E6"/>
<path opacity="0.1" d="M631.173 593.962L548.367 609.921L546.48 609.74V520.72L627.435 509.288L631.173 593.962Z" fill="black"/>
<path opacity="0.05" d="M627.435 509.469L627.411 509.492L546.48 520.72L473.71 515.989L562.791 501.807L627.411 508.903L627.435 509.288V509.469Z" fill="black"/>
<path d="M534.075 549.388L483.729 546.294L482.187 568.547L532.532 571.641L534.075 549.388Z" fill="white"/>
<path d="M521.756 555.918L495.042 554.276L494.506 562.016L521.22 563.658L521.756 555.918Z" fill="#6930C3"/>
<path d="M743.405 593.962L660.598 609.921L658.711 609.74L585.942 602.824V515.989L675.023 501.807L739.642 508.903L739.666 509.288V509.469L743.405 593.962Z" fill="#6930C3"/>
<path opacity="0.1" d="M743.405 593.962L660.598 609.921L658.711 609.74V520.72L739.666 509.288L743.405 593.962Z" fill="black"/>
<path opacity="0.05" d="M739.666 509.469L739.642 509.492L658.711 520.72L585.942 515.989L675.023 501.807L739.642 508.903L739.666 509.288V509.469Z" fill="black"/>
<path d="M646.306 549.388L595.96 546.294L594.418 568.547L644.764 571.641L646.306 549.388Z" fill="white"/>
<path d="M633.987 555.918L607.273 554.276L606.737 562.016L633.451 563.658L633.987 555.918Z" fill="#6930C3"/>
<path opacity="0.05" d="M899.261 384.398L899.238 384.42L818.306 395.649L745.537 390.917L834.618 376.736L899.238 383.832L899.261 384.217V384.398Z" fill="black"/>
<path d="M805.901 424.317L755.556 421.223L754.013 443.475L804.359 446.569L805.901 424.317Z" fill="white"/>
</svg>
