<svg width="453" height="220" viewBox="0 0 453 220" fill="none" xmlns="http://www.w3.org/2000/svg">
<g clip-path="url(#clip0)">
<path d="M227.953 220C350.788 220 450.365 214.113 450.365 206.85C450.365 199.587 350.788 193.7 227.953 193.7C105.119 193.7 5.5415 199.587 5.5415 206.85C5.5415 214.113 105.119 220 227.953 220Z" fill="#F2F2F2"/>
<path d="M219.429 62.8896C183.192 62.8896 157.174 83.6531 157.174 132.101C157.174 187.009 183.192 201.543 219.429 201.543C255.666 201.543 283.234 185.625 283.234 132.101C283.234 74.8863 255.666 62.8896 219.429 62.8896ZM219.667 183.318C194.569 183.318 181.456 170.167 181.456 132.137C181.456 98.5804 195.105 80.8847 220.204 80.8847C245.303 80.8847 258.952 92.5083 258.952 132.137C258.952 169.208 244.766 183.318 219.667 183.318Z" fill="#2F2E41"/>
<path d="M135.476 163.246H120.493V123.843C120.493 121.75 119.562 119.743 117.905 118.263C116.248 116.783 114.001 115.952 111.658 115.952H108.147C106.987 115.952 105.838 116.156 104.766 116.553C103.694 116.949 102.72 117.53 101.899 118.263C101.079 118.996 100.428 119.866 99.9838 120.823C99.5398 121.781 99.3112 122.807 99.3112 123.843V163.246H57.0509C56.1815 163.246 55.3268 163.046 54.5699 162.664C53.8129 162.282 53.1793 161.732 52.7306 161.067C52.2819 160.402 52.0332 159.644 52.0087 158.868C51.9843 158.092 52.1848 157.324 52.591 156.637L97.3189 81.0305C97.8765 80.0879 98.2145 79.0542 98.3125 77.9916C98.4104 76.9291 98.2663 75.8599 97.8888 74.8485C97.5113 73.8372 96.9082 72.9046 96.116 72.1071C95.3238 71.3096 94.3589 70.6638 93.2795 70.2085L90.6391 69.095C88.5889 68.2303 86.2449 68.1026 84.0922 68.7383C81.9395 69.3741 80.1428 70.7246 79.074 72.5104L24.5224 163.651C23.5934 165.203 23.1074 166.936 23.1074 168.695C23.1074 170.101 23.4173 171.492 24.0194 172.79C24.6215 174.089 25.5041 175.268 26.6166 176.262C27.7291 177.255 29.0499 178.044 30.5035 178.581C31.9572 179.119 33.5151 179.396 35.0885 179.396H99.3112V204.312C99.3112 205.554 99.5852 206.784 100.117 207.932C100.65 209.079 101.43 210.122 102.413 211C103.397 211.879 104.564 212.576 105.849 213.051C107.134 213.526 108.511 213.771 109.902 213.771H109.902C111.293 213.771 112.67 213.526 113.955 213.051C115.24 212.576 116.408 211.879 117.391 211C118.375 210.122 119.155 209.079 119.687 207.932C120.219 206.784 120.493 205.554 120.493 204.312V179.396H135.476C137.874 179.396 140.173 178.545 141.869 177.031C143.564 175.517 144.517 173.463 144.517 171.321C144.517 169.18 143.564 167.126 141.869 165.612C140.173 164.097 137.874 163.246 135.476 163.246Z" fill="#6930C3"/>
<path d="M412.909 163.246H397.927V123.843C397.927 121.75 396.996 119.743 395.339 118.263C393.682 116.783 391.435 115.952 389.091 115.952H385.581C384.42 115.952 383.271 116.156 382.199 116.553C381.127 116.949 380.153 117.53 379.333 118.263C378.512 118.996 377.861 119.866 377.417 120.823C376.973 121.781 376.745 122.807 376.745 123.843V163.246H334.484C333.615 163.246 332.76 163.046 332.003 162.664C331.247 162.282 330.613 161.732 330.164 161.067C329.715 160.402 329.467 159.644 329.442 158.868C329.418 158.092 329.618 157.324 330.025 156.637L374.753 81.0306C375.31 80.0879 375.648 79.0542 375.746 77.9917C375.844 76.9292 375.7 75.8599 375.322 74.8485C374.945 73.8372 374.342 72.9046 373.55 72.1071C372.757 71.3096 371.792 70.6638 370.713 70.2085L368.073 69.095C366.022 68.2303 363.679 68.1026 361.526 68.7383C359.373 69.3741 357.576 70.7246 356.508 72.5104L301.956 163.651C301.027 165.203 300.541 166.936 300.541 168.695C300.541 171.533 301.803 174.255 304.05 176.262C306.297 178.268 309.345 179.396 312.522 179.396H376.745V204.312C376.745 206.821 377.861 209.227 379.847 211C381.833 212.774 384.527 213.771 387.336 213.771C390.145 213.771 392.839 212.774 394.825 211C396.811 209.227 397.927 206.821 397.927 204.312V179.396H412.909C415.307 179.396 417.607 178.545 419.302 177.031C420.998 175.517 421.951 173.463 421.951 171.321C421.951 169.18 420.998 167.126 419.302 165.612C417.607 164.097 415.307 163.247 412.909 163.246Z" fill="#6930C3"/>
<path d="M139.609 158.632H124.626V119.229C124.626 118.193 124.398 117.167 123.954 116.209C123.51 115.252 122.859 114.382 122.038 113.649C121.218 112.916 120.244 112.335 119.172 111.939C118.1 111.542 116.951 111.338 115.79 111.338H112.28C109.936 111.338 107.689 112.169 106.032 113.649C104.375 115.129 103.444 117.136 103.444 119.229V158.632H61.1837C60.3143 158.632 59.4597 158.432 58.7027 158.05C57.9457 157.668 57.3122 157.118 56.8634 156.453C56.4147 155.788 56.166 155.03 56.1415 154.254C56.1171 153.478 56.3176 152.71 56.7238 152.023L101.452 76.4165C102.009 75.4739 102.347 74.4401 102.445 73.3776C102.543 72.3151 102.399 71.2459 102.022 70.2345C101.644 69.2231 101.041 68.2906 100.249 67.4931C99.4566 66.6956 98.4917 66.0497 97.4123 65.5945L94.7719 64.4809C92.7217 63.6163 90.3777 63.4886 88.225 64.1243C86.0723 64.7601 84.2757 66.1105 83.2068 67.8964L28.6552 159.037C27.7262 160.589 27.2402 162.322 27.2402 164.081V164.081C27.2402 166.919 28.5025 169.641 30.7494 171.648C32.9963 173.654 36.0437 174.782 39.2213 174.782H103.444V199.698C103.444 200.94 103.718 202.17 104.25 203.318C104.783 204.465 105.563 205.508 106.546 206.386C107.53 207.265 108.697 207.962 109.982 208.437C111.267 208.912 112.644 209.157 114.035 209.157H114.035C116.844 209.157 119.538 208.16 121.524 206.386C123.51 204.613 124.626 202.207 124.626 199.698V174.782H139.609C140.796 174.782 141.972 174.573 143.068 174.167C144.165 173.761 145.162 173.167 146.002 172.417C146.841 171.667 147.507 170.777 147.961 169.797C148.416 168.818 148.65 167.768 148.65 166.707V166.707C148.65 165.647 148.416 164.597 147.961 163.617C147.507 162.637 146.841 161.747 146.002 160.998C145.162 160.248 144.165 159.653 143.068 159.247C141.972 158.841 140.796 158.632 139.609 158.632V158.632Z" stroke="#3F3D56" stroke-miterlimit="10"/>
<path d="M420.659 158.632H405.676V119.229C405.676 117.136 404.746 115.129 403.088 113.649C401.431 112.169 399.184 111.338 396.841 111.338H393.33C392.17 111.338 391.021 111.542 389.949 111.939C388.877 112.335 387.903 112.916 387.082 113.649C386.262 114.382 385.611 115.252 385.167 116.209C384.723 117.167 384.494 118.193 384.494 119.229V158.632H342.234C341.365 158.632 340.51 158.432 339.753 158.05C338.996 157.668 338.362 157.118 337.914 156.453C337.465 155.788 337.216 155.03 337.192 154.254C337.167 153.478 337.368 152.71 337.774 152.023L382.502 76.4165C383.06 75.4739 383.398 74.4401 383.496 73.3776C383.594 72.3151 383.449 71.2459 383.072 70.2345C382.694 69.2231 382.091 68.2906 381.299 67.4931C380.507 66.6956 379.542 66.0497 378.463 65.5945L375.822 64.4809C373.772 63.6163 371.428 63.4886 369.275 64.1243C367.123 64.7601 365.326 66.1105 364.257 67.8964L309.705 159.037C308.777 160.589 308.291 162.322 308.291 164.081C308.291 166.919 309.553 169.641 311.8 171.648C314.047 173.654 317.094 174.782 320.272 174.782H384.494V199.698C384.494 202.207 385.61 204.613 387.596 206.386C389.583 208.16 392.276 209.157 395.085 209.157V209.157C397.894 209.157 400.588 208.16 402.574 206.386C404.561 204.613 405.676 202.207 405.676 199.698V174.782H420.659C421.846 174.782 423.022 174.573 424.119 174.167C425.216 173.761 426.212 173.167 427.052 172.417C427.891 171.667 428.557 170.777 429.012 169.797C429.466 168.818 429.7 167.768 429.7 166.707V166.707C429.7 164.566 428.747 162.512 427.052 160.998C425.356 159.483 423.057 158.632 420.659 158.632V158.632Z" stroke="#3F3D56" stroke-miterlimit="10"/>
<path d="M227.695 58.7371C191.458 58.7371 165.44 79.5005 165.44 127.949C165.44 182.856 191.458 197.391 227.695 197.391C263.932 197.391 291.5 181.472 291.5 127.949C291.5 70.7337 263.932 58.7371 227.695 58.7371ZM227.933 179.165C202.835 179.165 189.722 166.014 189.722 127.984C189.722 94.4278 203.372 76.7321 228.47 76.7321C253.569 76.7321 267.218 88.3557 267.218 127.984C267.218 165.056 253.032 179.165 227.933 179.165V179.165Z" stroke="#3F3D56" stroke-miterlimit="10"/>
<path d="M198.649 11.7306C201.653 11.7306 204.089 9.55558 204.089 6.87252C204.089 4.18946 201.653 2.0144 198.649 2.0144C195.645 2.0144 193.209 4.18946 193.209 6.87252C193.209 9.55558 195.645 11.7306 198.649 11.7306Z" fill="#2F2E41"/>
<path d="M211.917 35.3102C220.343 35.3102 227.174 27.4057 227.174 17.6551C227.174 7.90445 220.343 0 211.917 0C203.49 0 196.659 7.90445 196.659 17.6551C196.659 27.4057 203.49 35.3102 211.917 35.3102Z" fill="#2F2E41"/>
<path opacity="0.1" d="M211.916 29.9781C204.273 29.9781 197.943 23.4746 196.832 14.989C196.716 15.8739 196.658 16.7641 196.659 17.655C196.659 27.4057 203.49 35.3101 211.916 35.3101C220.342 35.3101 227.173 27.4057 227.173 17.655C227.174 16.7641 227.116 15.8739 227 14.989C225.89 23.4746 219.559 29.9781 211.916 29.9781Z" fill="black"/>
<path d="M242.963 69.3587C242.636 70.5612 241.223 71.5243 239.658 72.1972C236.369 73.6118 232.311 74.034 228.375 74.1757C227.371 74.2302 226.364 74.2136 225.363 74.126C223.423 73.9584 221.603 73.2113 220.198 72.0054C220.097 71.947 220.015 71.8669 219.959 71.7724C219.903 71.678 219.874 71.5724 219.876 71.4654C219.878 71.3585 219.91 71.2537 219.97 71.1608C220.029 71.068 220.114 70.9901 220.216 70.9345C222.311 68.8789 225.808 67.6185 229.33 66.7109C232.001 66.0228 236.659 64.2404 239.572 64.4809C242.393 64.7139 243.377 67.8403 242.963 69.3587Z" fill="#3F3D56"/>
<path opacity="0.1" d="M242.963 69.3587C242.636 70.5612 241.223 71.5243 239.658 72.1972C236.369 73.6118 232.311 74.034 228.375 74.1757C227.371 74.2302 226.364 74.2136 225.363 74.126C223.423 73.9584 221.603 73.2113 220.198 72.0054C220.097 71.947 220.015 71.8669 219.959 71.7724C219.903 71.678 219.874 71.5724 219.876 71.4654C219.878 71.3585 219.91 71.2537 219.97 71.1608C220.029 71.068 220.114 70.9901 220.216 70.9345C222.311 68.8789 225.808 67.6185 229.33 66.7109C232.001 66.0228 236.659 64.2404 239.572 64.4809C242.393 64.7139 243.377 67.8403 242.963 69.3587Z" fill="black"/>
<path d="M201.138 60.3711C200.134 62.1287 199.952 64.1705 200.632 66.0477C201.324 67.9108 202.62 69.5485 204.355 70.7536C208.611 73.8006 214.469 74.2199 219.924 74.1776C224.704 74.1404 229.478 73.8482 234.219 73.3025C235.808 73.1767 237.37 72.853 238.858 72.3406C240.638 71.6527 242.203 70.3909 242.837 68.7536C243.47 67.1162 243.02 65.1113 241.515 64.0186C240.193 63.0584 238.369 62.9264 236.667 62.8351L226.933 62.3126C227.895 61.4433 229.175 60.9517 230.346 60.3198C231.9 59.4814 232.932 58.0737 234.062 56.8047C235.803 54.9466 237.697 53.2074 239.728 51.6017C240.045 53.2248 241.195 54.5577 242.548 55.6776C243.901 56.7975 245.461 57.6992 246.867 58.7655C250.273 61.3481 252.726 64.8533 256.308 67.2383C258.773 66.66 261.077 65.6328 263.075 64.2212L261.683 61.9688C261.567 61.737 261.386 61.5357 261.158 61.3841C260.764 61.1676 260.256 61.2791 259.798 61.2179C258.575 61.054 258.041 59.7929 257.561 58.7749C256.244 55.9802 253.721 53.8119 251.566 51.4682C249.976 49.7381 248.566 47.8824 247.352 45.9241C246.628 44.7561 245.965 43.54 244.983 42.5338C244.001 41.5276 242.625 40.7365 241.13 40.7337C239.81 40.7312 238.591 41.33 237.456 41.9323C233.998 43.7669 230.67 45.7916 227.493 47.9946C225.83 49.1475 224.177 50.3656 222.227 51.0726C221.406 51.3702 220.54 51.5736 219.752 51.9357C218.372 52.57 217.325 53.6432 216.197 54.5958C212.176 57.9936 206.67 60.1951 201.138 60.3711Z" fill="#3F3D56"/>
<path d="M221.492 36.1868C221.447 37.2254 221.2 38.2491 220.761 39.2119C220.539 39.6921 220.209 40.1263 219.79 40.4873C219.372 40.8483 218.875 41.1285 218.33 41.3104C217.556 41.4955 216.744 41.519 215.959 41.3791C215.274 41.3152 214.613 41.1143 214.027 40.7914C213.114 40.2309 212.659 39.2309 212.493 38.2521C212.327 37.2746 212.402 36.2757 212.296 35.291C212.192 34.4957 212.023 33.7084 211.789 32.9355C211.717 32.6783 211.644 32.4224 211.573 32.1665C211.502 31.9105 211.433 31.6546 211.37 31.3986C211.311 31.1581 211.257 30.9164 211.21 30.6735C211.172 30.4685 211.137 30.2623 211.112 30.055C211.089 29.4402 210.974 28.831 210.771 28.2432C210.581 27.8621 210.342 27.5015 210.06 27.1685C209.939 27.0145 209.823 26.8605 209.715 26.7005C209.404 26.2848 209.26 25.7875 209.305 25.2893C209.318 25.2122 209.339 25.1365 209.368 25.063C209.378 25.0345 209.39 25.0061 209.403 24.9788C209.523 24.9499 209.632 24.8954 209.723 24.82C209.813 24.7446 209.882 24.6507 209.922 24.5463C209.968 24.3222 209.946 24.0912 209.86 23.8768C209.761 23.5773 209.625 23.2885 209.455 23.0154C209.344 22.8353 208.966 22.5106 208.963 22.3045C208.958 21.8897 209.865 21.5556 210.233 21.3921C211.354 20.8904 212.605 20.6639 213.857 20.7357C214.66 20.7842 215.53 21.0046 215.973 21.6054C216.371 22.1469 216.318 22.8483 216.488 23.4775C216.506 23.569 216.549 23.655 216.614 23.7275C216.701 23.798 216.81 23.8427 216.926 23.8555C217.122 23.8904 217.324 23.8976 217.523 23.8768H217.524C217.577 23.8731 217.629 23.8664 217.681 23.8567C217.991 23.8056 218.284 23.6926 218.538 23.5261C218.702 23.487 218.868 23.455 219.035 23.4301C219.042 23.4295 219.049 23.4283 219.055 23.4266C219.72 25.2999 219.806 27.3083 220.35 29.216C220.62 30.1651 221.006 31.1024 221.06 32.0787C221.064 32.1214 221.065 32.1652 221.067 32.2091C221.075 32.5231 221.047 32.8394 221.061 33.1523C221.066 33.2931 221.084 33.4334 221.114 33.5717C221.174 33.7942 221.248 34.0134 221.336 34.2282L221.34 34.2388C221.365 34.3076 221.389 34.3775 221.409 34.4474C221.424 34.4983 221.437 34.5481 221.447 34.599L221.449 34.6026C221.547 35.1262 221.562 35.6596 221.492 36.1868Z" fill="#FBBEBE"/>
<path d="M212.182 23.935C216.505 23.935 220.009 20.8051 220.009 16.9441C220.009 13.0831 216.505 9.95312 212.182 9.95312C207.859 9.95312 204.354 13.0831 204.354 16.9441C204.354 20.8051 207.859 23.935 212.182 23.935Z" fill="#FBBEBE"/>
<path d="M261.878 55.0342C261.651 53.1268 260.892 51.3009 259.67 49.7234C259.873 50.8017 260.077 51.8795 260.281 52.957C260.027 53.0225 259.758 53.0205 259.506 52.9513C259.254 52.882 259.03 52.7485 258.861 52.5672C258.532 52.1996 258.279 51.7817 258.117 51.3337C257.227 49.362 256.065 47.4978 254.655 45.7848C249.672 45.4139 244.746 43.569 240.364 41.4184C235.98 39.269 231.878 36.6918 227.553 34.4512C226.803 34.0464 226.022 33.69 225.215 33.3847C223.862 32.9001 222.343 32.6489 221.06 32.079C220.974 32.0411 220.888 32.0008 220.803 31.9593C220.513 31.8185 220.238 31.6539 219.983 31.4676C219.845 31.3674 219.713 31.2598 219.59 31.1453C218.95 30.4802 218.442 29.7219 218.09 28.9034C217.401 27.5432 217.155 25.9021 216.468 24.5418C216.784 24.2782 217.139 24.0545 217.523 23.8771H217.524C217.58 23.851 217.636 23.8261 217.693 23.8024C217.965 23.688 218.248 23.5956 218.538 23.5263C218.702 23.4872 218.868 23.4552 219.035 23.4304C219.042 23.4297 219.049 23.4286 219.055 23.4268C219.831 23.314 220.625 23.3701 221.371 23.5903C222.461 23.9197 223.38 24.5773 224.297 25.1994C225.787 26.1365 227.215 27.1485 228.576 28.2304C229.332 28.8773 230.022 29.5883 230.835 30.176C231.511 30.6419 232.224 31.0636 232.967 31.4379C237.368 33.7793 241.769 36.1203 246.171 38.4609C247.661 39.2536 249.152 40.0463 250.609 40.8852C252.822 42.1602 254.955 43.5417 257.087 44.9222C258.344 45.735 259.6 46.5482 260.855 47.3619C261.267 47.5966 261.629 47.8951 261.923 48.2435C262.183 48.6389 262.345 49.0799 262.397 49.5362C262.712 51.3797 262.534 53.2637 261.878 55.0342Z" fill="#FBBEBE"/>
<path d="M223.434 41.4445C222.905 43.5596 220.512 44.8381 219.261 46.696C217.706 49.0018 218.34 51.6821 218.924 54.3232C217.857 55.1444 216.79 55.9655 215.723 56.7867C215.134 57.2381 214.544 57.6919 213.91 58.0912C212.986 58.6446 212.019 59.1403 211.018 59.5747C210.073 60.0084 209.129 60.4425 208.184 60.8769C207.306 61.3179 206.376 61.6701 205.41 61.9268C203.549 62.3533 201.572 62.0547 199.73 61.5606C199.513 61.5098 199.304 61.4337 199.109 61.3343C198.994 61.2732 198.894 61.1922 198.815 61.0962C198.633 60.8055 198.567 60.4684 198.628 60.1399C198.815 57.372 199.572 54.6621 200.327 51.9724C200.731 50.3587 201.273 48.7753 201.95 47.2363C202.614 45.9176 203.376 44.6405 204.233 43.4138C205.179 41.8704 206.299 40.4176 207.577 39.0783C208.198 38.5628 208.722 37.96 209.126 37.2938C209.597 36.334 209.415 35.2332 209.511 34.1882C209.584 33.403 209.817 32.6363 210.199 31.9262V31.925C210.404 31.5425 210.65 31.1789 210.934 30.8396C211.063 31.1074 211.192 31.3748 211.321 31.6418C211.405 31.8172 211.489 31.9921 211.573 32.1667C211.681 32.3919 211.789 32.6162 211.896 32.8398C212.205 33.482 212.514 34.1238 212.822 34.7652C213.156 35.5731 213.63 36.3286 214.229 37.0035C214.502 37.3491 214.872 37.6254 215.3 37.8055C215.729 37.9855 216.203 38.0631 216.676 38.0308C217.148 37.9984 217.603 37.8572 217.996 37.6209C218.389 37.3845 218.707 37.0612 218.919 36.6824C219.365 35.9753 219.688 35.2118 219.877 34.418C220.139 33.4515 220.175 32.4472 219.983 31.4676C219.663 29.5813 218.765 27.6546 218.112 25.9021C217.846 25.3178 217.693 24.6978 217.657 24.0679C217.658 23.9971 217.666 23.9266 217.681 23.857C217.685 23.8392 217.689 23.8203 217.693 23.8025C217.965 23.6881 218.248 23.5957 218.538 23.5264C218.702 23.4873 218.868 23.4553 219.035 23.4304C219.61 26.2078 220.185 28.9853 220.762 31.7627C220.775 31.8278 220.789 31.893 220.803 31.9594C220.885 32.3575 220.968 32.7556 221.061 33.1526C221.145 33.5128 221.235 33.8718 221.336 34.2285L221.34 34.2391C221.374 34.36 221.41 34.4797 221.447 34.5993L221.449 34.6029C221.551 34.9299 221.665 35.2546 221.794 35.5745C222.574 37.5023 223.934 39.4432 223.434 41.4445Z" fill="#6930C3"/>
<path d="M255.201 71.1677C255.177 71.5751 255.265 71.9817 255.459 72.3513C255.948 73.1509 257.124 73.3327 258.141 73.4075C264.083 73.8437 270.061 73.681 275.962 72.9226C276.282 72.903 276.592 72.8169 276.869 72.6712C277.708 72.1458 277.191 70.8655 276.274 70.4556C275.358 70.0458 274.271 70.1445 273.266 69.9671C272.267 69.7426 271.316 69.3742 270.45 68.8765C268.412 67.8305 266.403 66.7399 264.424 65.6049C263.246 64.9291 261.855 64.2078 260.528 64.6085C256.934 65.6945 255.178 67.7046 255.201 71.1677Z" fill="#3F3D56"/>
<path d="M211.4 31.2506V31.2518C211.391 31.3016 211.382 31.3502 211.37 31.3988C211.355 31.4793 211.338 31.5611 211.321 31.6416C211.156 32.3941 210.955 33.1429 210.722 33.887C210.086 35.9428 209.232 37.9655 208.386 39.9585C206.115 45.3024 203.843 50.6467 201.571 55.9914C200.997 57.3375 200.426 58.6847 199.774 60.0035C199.557 60.4431 199.332 60.8863 199.11 61.3342C198.311 62.9373 197.544 64.5927 197.289 66.2989C197.052 67.4219 197.024 68.5722 197.208 69.7032C197.463 70.8217 198.223 71.9142 199.413 72.3277C199.995 72.5303 200.826 72.8017 200.667 73.3408C200.581 73.637 200.204 73.7816 199.866 73.8313C199.419 73.8949 198.962 73.8699 198.527 73.7581C198.093 73.6463 197.691 73.4505 197.35 73.1844C196.715 72.6808 196.227 71.8976 195.381 71.8135C194.796 71.7566 194.258 72.0694 193.722 72.2886C191.535 73.1809 188.988 72.5564 186.691 71.9225C186.872 71.0919 187.806 70.5444 188.733 70.3786C189.661 70.2115 190.62 70.33 191.566 70.3075C191.869 70.3219 192.169 70.2528 192.427 70.1096C192.658 69.9203 192.819 69.6734 192.891 69.401C193.5 67.7885 193.954 66.1322 194.246 64.4505C194.551 62.6933 194.678 60.9088 195.113 59.1729C195.452 57.8186 195.975 56.5069 196.423 55.1774C197.29 52.4401 198.002 49.6655 198.556 46.8641C198.836 45.7003 199.037 44.5223 199.157 43.3367C199.233 42.3532 199.197 41.365 199.303 40.3851C199.481 39.1102 199.779 37.8509 200.193 36.6206C200.599 35.2781 201.005 33.9364 201.41 32.5955C202.011 30.6108 202.656 28.5491 204.179 27.0063C204.708 26.4632 205.356 26.0229 206.084 25.7127C206.811 25.4025 207.602 25.2289 208.407 25.2029C208.709 25.2026 209.01 25.2316 209.305 25.2894C209.354 25.3 209.404 25.3107 209.453 25.3225C209.774 25.3976 210.083 25.5116 210.369 25.6614C210.839 25.3948 211.078 25.4884 211.39 25.8996C211.663 26.3347 211.792 26.8304 211.761 27.3286C211.787 28.6434 211.667 29.9573 211.4 31.2506Z" fill="#FBBEBE"/>
<path d="M211.916 32.8218L211.896 32.8395L211.789 32.9355L210.722 33.887L210.2 31.926L208.407 25.2028C208.709 25.2025 209.01 25.2315 209.305 25.2893C209.318 25.2123 209.339 25.1365 209.368 25.063L209.453 25.3225L210.06 27.1686L211.211 30.6735L211.4 31.2506V31.2518L211.916 32.8218Z" fill="#6930C3"/>
<path d="M218.685 11.3732C218.684 11.9957 218.546 12.612 218.278 13.1868C218.011 13.7616 217.619 14.2836 217.125 14.7231C216.946 14.883 216.754 15.031 216.552 15.166C215.636 15.7824 214.521 16.1161 213.374 16.1165H207.009C205.603 16.1146 204.255 15.6142 203.261 14.7253C202.267 13.8364 201.709 12.6316 201.709 11.3755C201.709 10.1194 202.267 8.91461 203.261 8.02571C204.255 7.13681 205.603 6.63646 207.009 6.63452H213.374C214.781 6.63779 216.129 7.13795 217.124 8.02579C218.119 8.91363 218.68 10.117 218.685 11.3732Z" fill="#2F2E41"/>
<path d="M224.653 11.7306C227.657 11.7306 230.093 9.55558 230.093 6.87252C230.093 4.18946 227.657 2.0144 224.653 2.0144C221.649 2.0144 219.213 4.18946 219.213 6.87252C219.213 9.55558 221.649 11.7306 224.653 11.7306Z" fill="#2F2E41"/>
<path opacity="0.1" d="M224.52 2.0144C224.454 2.0144 224.387 2.01677 224.321 2.0189C225.728 2.06459 227.061 2.59595 228.038 3.50118C229.016 4.40642 229.562 5.61496 229.562 6.87252C229.562 8.13008 229.016 9.33861 228.038 10.2438C227.061 11.1491 225.728 11.6804 224.321 11.7261C224.387 11.7283 224.454 11.7306 224.52 11.7306C225.963 11.7306 227.347 11.2188 228.367 10.3077C229.387 9.39664 229.96 8.16097 229.96 6.87252C229.96 5.58407 229.387 4.34839 228.367 3.43731C227.347 2.52624 225.963 2.0144 224.52 2.0144Z" fill="black"/>
<path opacity="0.1" d="M198.649 2.0144C198.716 2.0144 198.782 2.01677 198.848 2.0189C197.441 2.06459 196.109 2.59595 195.131 3.50118C194.154 4.40642 193.608 5.61496 193.608 6.87252C193.608 8.13008 194.154 9.33861 195.131 10.2438C196.109 11.1491 197.441 11.6804 198.848 11.7261C198.782 11.7283 198.716 11.7306 198.649 11.7306C197.207 11.7295 195.825 11.2172 194.806 10.3062C193.787 9.39526 193.214 8.16023 193.214 6.87252C193.214 5.58481 193.787 4.34977 194.806 3.43882C195.825 2.52788 197.207 2.01554 198.649 2.0144Z" fill="black"/>
<path opacity="0.1" d="M216.552 15.166C215.636 15.7824 214.521 16.116 213.374 16.1165H207.009C205.863 16.116 204.748 15.7824 203.832 15.166H216.552Z" fill="black"/>
<path d="M257.654 50.3677C257.654 50.3677 259.026 53.8967 260.281 52.9571L259.28 48.3442L257.654 50.3677Z" fill="#FBBEBE"/>
<path d="M424.528 157.987C425.805 158.402 427.173 158.546 428.523 158.408C429.873 158.27 431.169 157.854 432.309 157.192C433.448 156.531 434.4 155.642 435.089 154.596C435.779 153.55 436.186 152.375 436.28 151.164C436.375 149.953 436.153 148.74 435.632 147.619C435.111 146.497 434.306 145.5 433.28 144.704C432.254 143.908 431.035 143.336 429.719 143.033C428.403 142.729 427.026 142.703 425.697 142.956L425.916 146.99L423.779 143.533C421.682 144.413 420.062 146.001 419.275 147.948C418.995 148.629 418.825 149.343 418.77 150.068C418.635 151.767 419.124 153.46 420.163 154.889C421.202 156.318 422.735 157.406 424.528 157.987Z" fill="#57B894"/>
<path d="M435.101 204.772C434.347 201.342 437.616 198.301 440.844 196.324C444.073 194.347 447.846 192.404 448.947 189.05C450.531 184.228 445.815 179.813 442.144 176.005C439.421 173.179 437.082 170.075 435.177 166.757C434.413 165.427 433.712 164.037 433.511 162.553C433.221 160.416 433.99 158.289 434.765 156.25C437.345 149.459 440.103 142.725 443.041 136.048" stroke="#3F3D56" stroke-miterlimit="10"/>
<path d="M424.889 156.948C426.167 157.363 427.534 157.507 428.884 157.369C430.235 157.231 431.531 156.815 432.67 156.154C433.809 155.492 434.761 154.604 435.451 153.557C436.14 152.511 436.548 151.337 436.642 150.126C436.736 148.915 436.514 147.701 435.993 146.58C435.472 145.459 434.667 144.461 433.641 143.665C432.615 142.869 431.396 142.297 430.08 141.994C428.764 141.691 427.387 141.665 426.058 141.918L426.278 145.952L424.141 142.495C422.043 143.375 420.423 144.962 419.636 146.909C419.357 147.591 419.187 148.305 419.131 149.029C418.996 150.729 419.486 152.421 420.525 153.85C421.564 155.279 423.096 156.367 424.889 156.948V156.948Z" stroke="#3F3D56" stroke-miterlimit="10"/>
<path d="M434.029 134.655C434.53 133.419 435.371 132.317 436.475 131.448C437.579 130.58 438.91 129.973 440.345 129.685L441.067 133.52L442.407 129.492C444.267 129.517 446.07 130.069 447.555 131.068C449.041 132.068 450.133 133.463 450.673 135.053C451.213 136.642 451.173 138.344 450.56 139.912C449.946 141.481 448.79 142.834 447.259 143.778C445.728 144.721 443.901 145.206 442.042 145.161C440.182 145.117 438.387 144.546 436.915 143.53C435.442 142.515 434.369 141.108 433.851 139.513C433.332 137.918 433.394 136.216 434.029 134.655H434.029Z" fill="#57B894"/>
<path d="M434.511 133.27C435.012 132.035 435.853 130.932 436.957 130.064C438.061 129.195 439.391 128.589 440.827 128.3L441.549 132.135L442.889 128.107C444.749 128.132 446.552 128.684 448.037 129.683C449.523 130.683 450.615 132.078 451.155 133.668C451.695 135.258 451.655 136.959 451.042 138.528C450.428 140.096 449.272 141.449 447.741 142.393C446.21 143.336 444.383 143.821 442.524 143.776C440.664 143.732 438.869 143.161 437.397 142.146C435.924 141.13 434.851 139.724 434.332 138.128C433.814 136.533 433.876 134.832 434.511 133.27H434.511Z" stroke="#3F3D56" stroke-miterlimit="10"/>
<path d="M440.604 176.083C442.629 176.739 444.854 176.707 446.855 175.992C448.856 175.277 450.492 173.93 451.451 172.207C452.411 170.484 452.628 168.506 452.059 166.649C451.491 164.793 450.178 163.188 448.37 162.141L447.341 165.236L446.611 161.356C446.603 161.353 446.596 161.351 446.588 161.349C445.505 160.997 444.355 160.84 443.203 160.885C442.051 160.931 440.921 161.178 439.877 161.614C438.832 162.05 437.894 162.665 437.116 163.425C436.338 164.185 435.735 165.074 435.342 166.042C434.949 167.01 434.774 168.037 434.825 169.066C434.877 170.094 435.155 171.103 435.644 172.036C436.132 172.968 436.822 173.806 437.673 174.5C438.524 175.194 439.52 175.732 440.604 176.083H440.604Z" fill="#57B894"/>
<path d="M441.021 174.68C443.047 175.336 445.272 175.304 447.273 174.589C449.273 173.874 450.909 172.527 451.869 170.804C452.829 169.081 453.045 167.103 452.477 165.247C451.908 163.39 450.595 161.786 448.787 160.739L447.758 163.834L447.028 159.954C447.021 159.951 447.013 159.948 447.006 159.946C445.922 159.595 444.772 159.437 443.62 159.483C442.469 159.528 441.338 159.776 440.294 160.212C439.25 160.647 438.312 161.263 437.534 162.022C436.756 162.782 436.153 163.671 435.76 164.639C435.367 165.607 435.191 166.634 435.243 167.663C435.294 168.691 435.572 169.701 436.061 170.633C436.55 171.566 437.239 172.403 438.09 173.097C438.941 173.792 439.937 174.33 441.021 174.68H441.021Z" stroke="#3F3D56" stroke-miterlimit="10"/>
<path d="M431.468 189.098C431.816 190.868 432.835 192.477 434.354 193.655C435.873 194.834 437.8 195.51 439.811 195.571C441.822 195.631 443.795 195.072 445.399 193.988C447.004 192.903 448.142 191.359 448.622 189.614C449.103 187.869 448.898 186.029 448.04 184.404C447.182 182.778 445.725 181.465 443.912 180.685C442.1 179.905 440.042 179.706 438.084 180.12C436.126 180.534 434.387 181.537 433.159 182.961L437.068 188.216L431.726 185.427C431.312 186.614 431.224 187.873 431.468 189.098Z" fill="#57B894"/>
<path d="M431.829 188.059C432.177 189.829 433.196 191.438 434.716 192.617C436.235 193.795 438.161 194.471 440.172 194.532C442.183 194.592 444.156 194.034 445.761 192.949C447.365 191.864 448.503 190.32 448.984 188.575C449.465 186.83 449.259 184.991 448.401 183.365C447.544 181.739 446.086 180.426 444.274 179.646C442.461 178.867 440.403 178.667 438.445 179.081C436.487 179.496 434.748 180.499 433.52 181.922L437.43 187.178L432.088 184.388C431.674 185.576 431.585 186.835 431.829 188.059V188.059Z" stroke="#3F3D56" stroke-miterlimit="10"/>
<path d="M3.79803 177.078C4.6372 177.351 5.53577 177.446 6.4229 177.355C7.31003 177.264 8.16147 176.991 8.91012 176.556C9.65877 176.122 10.2842 175.538 10.737 174.85C11.1898 174.163 11.4577 173.391 11.5196 172.596C11.5814 171.8 11.4355 171.003 11.0934 170.266C10.7513 169.529 10.2223 168.874 9.54807 168.351C8.87386 167.828 8.07289 167.452 7.2083 167.253C6.3437 167.054 5.43911 167.037 4.56582 167.203L4.71014 169.853L3.30615 167.582C1.92822 168.16 0.863707 169.203 0.346549 170.482C0.162885 170.93 0.0512301 171.399 0.0149168 171.875C-0.0737034 172.992 0.24767 174.104 0.930334 175.043C1.613 175.982 2.61975 176.696 3.79803 177.078Z" fill="#57B894"/>
<path d="M10.7448 207.817C10.2492 205.563 12.3968 203.565 14.5181 202.266C16.6394 200.967 19.118 199.691 19.8418 197.487C20.882 194.319 17.7835 191.418 15.3719 188.916C13.5827 187.06 12.0462 185.02 10.7945 182.841C10.2504 181.985 9.87972 181.049 9.69968 180.078C9.50952 178.674 10.0146 177.277 10.5235 175.937C12.2187 171.475 14.0312 167.051 15.961 162.664" stroke="#3F3D56" stroke-miterlimit="10"/>
<path d="M4.03583 176.396C4.875 176.668 5.77357 176.763 6.66069 176.673C7.54782 176.582 8.39926 176.309 9.14791 175.874C9.89655 175.439 10.5219 174.855 10.9748 174.168C11.4276 173.481 11.6955 172.709 11.7574 171.913C11.8192 171.118 11.6733 170.32 11.3312 169.584C10.9891 168.847 10.4601 168.192 9.78585 167.669C9.11165 167.146 8.31068 166.77 7.44609 166.571C6.5815 166.372 5.67691 166.354 4.80362 166.521L4.94793 169.171L3.54394 166.9C2.16601 167.478 1.1015 168.521 0.584342 169.8C0.40068 170.248 0.289027 170.717 0.252712 171.193C0.164085 172.309 0.485456 173.422 1.16812 174.36C1.85079 175.299 2.85754 176.014 4.03583 176.396V176.396Z" stroke="#3F3D56" stroke-miterlimit="10"/>
<path d="M10.0401 161.749C10.3694 160.937 10.9221 160.213 11.6473 159.642C12.3725 159.071 13.2469 158.673 14.1898 158.483L14.6645 161.003L15.5446 158.357C16.7666 158.373 17.9512 158.735 18.9274 159.392C19.9036 160.049 20.6209 160.966 20.9756 162.01C21.3304 163.054 21.3044 164.173 20.9013 165.203C20.4982 166.233 19.7388 167.123 18.7329 167.743C17.727 168.362 16.5265 168.681 15.3049 168.651C14.0832 168.622 12.9035 168.247 11.9362 167.58C10.9688 166.913 10.2639 165.989 9.92305 164.941C9.58223 163.892 9.6232 162.775 10.0401 161.749Z" fill="#57B894"/>
<path d="M10.357 160.839C10.6863 160.027 11.239 159.303 11.9642 158.732C12.6894 158.162 13.5638 157.763 14.5067 157.574L14.9814 160.093L15.8615 157.447C17.0835 157.463 18.2681 157.826 19.2443 158.482C20.2205 159.139 20.9377 160.056 21.2925 161.1C21.6473 162.145 21.6213 163.263 21.2182 164.293C20.8151 165.324 20.0557 166.213 19.0498 166.833C18.0439 167.453 16.8434 167.771 15.6218 167.742C14.4001 167.713 13.2204 167.337 12.2531 166.67C11.2857 166.003 10.5808 165.079 10.2399 164.031C9.89912 162.983 9.9401 161.865 10.357 160.839V160.839Z" stroke="#3F3D56" stroke-miterlimit="10"/>
<path d="M14.36 188.968C15.6908 189.399 17.1528 189.377 18.4672 188.908C19.7816 188.438 20.8565 187.553 21.4871 186.421C22.1177 185.289 22.2599 183.989 21.8865 182.77C21.5131 181.55 20.6502 180.496 19.4624 179.808L18.7862 181.841L18.3066 179.292C18.3019 179.29 18.297 179.288 18.292 179.287C17.5801 179.056 16.8242 178.952 16.0675 178.982C15.3108 179.012 14.568 179.175 13.8818 179.461C13.1955 179.747 12.5791 180.152 12.0679 180.651C11.5566 181.15 11.1605 181.734 10.9022 182.37C10.6439 183.006 10.5285 183.681 10.5625 184.357C10.5964 185.033 10.7792 185.696 11.1003 186.309C11.4215 186.921 11.8746 187.472 12.4339 187.928C12.9932 188.384 13.6477 188.737 14.36 188.968Z" fill="#57B894"/>
<path d="M14.6341 188.046C15.9649 188.477 17.4269 188.456 18.7413 187.986C20.0557 187.517 21.1306 186.632 21.7612 185.5C22.3918 184.368 22.534 183.068 22.1606 181.848C21.7872 180.629 20.9243 179.574 19.7366 178.886L19.0603 180.92L18.5807 178.371C18.576 178.369 18.5711 178.367 18.5661 178.366C17.8544 178.135 17.0988 178.032 16.3425 178.062C15.5861 178.092 14.8439 178.255 14.1581 178.542C12.773 179.12 11.702 180.166 11.1805 181.45C10.6591 182.734 10.7301 184.15 11.3777 185.387C12.0254 186.624 13.1967 187.581 14.6341 188.046V188.046Z" stroke="#3F3D56" stroke-miterlimit="10"/>
<path d="M8.35761 197.519C8.58644 198.682 9.25601 199.739 10.254 200.513C11.2521 201.287 12.5178 201.732 13.8391 201.771C15.1604 201.811 16.4567 201.444 17.5108 200.731C18.5649 200.019 19.3126 199.004 19.6285 197.858C19.9444 196.711 19.8093 195.503 19.2459 194.434C18.6824 193.366 17.7249 192.504 16.5339 191.991C15.3429 191.479 13.9908 191.348 12.7044 191.62C11.418 191.892 10.2756 192.551 9.46862 193.487L12.0373 196.94L8.5275 195.107C8.25536 195.887 8.1971 196.714 8.35761 197.519Z" fill="#57B894"/>
<path d="M8.59492 196.837C8.82375 197.999 9.49332 199.057 10.4913 199.831C11.4894 200.605 12.7551 201.05 14.0764 201.089C15.3977 201.129 16.694 200.762 17.7481 200.049C18.8022 199.337 19.5499 198.322 19.8658 197.176C20.1817 196.029 20.0466 194.82 19.4832 193.752C18.9197 192.684 17.9622 191.822 16.7712 191.309C15.5802 190.797 14.2281 190.666 12.9417 190.938C11.6553 191.21 10.5129 191.869 9.70592 192.804L12.2746 196.257L8.7648 194.425C8.49266 195.205 8.4344 196.032 8.59492 196.837V196.837Z" stroke="#3F3D56" stroke-miterlimit="10"/>
<path d="M202.783 128.452C206.742 128.452 209.951 124.743 209.951 120.167C209.951 115.592 206.742 111.883 202.783 111.883C198.824 111.883 195.615 115.592 195.615 120.167C195.615 124.743 198.824 128.452 202.783 128.452Z" fill="#2F2E41"/>
<path d="M241.784 128.64C245.743 128.64 248.952 124.931 248.952 120.355C248.952 115.78 245.743 112.071 241.784 112.071C237.825 112.071 234.616 115.78 234.616 120.355C234.616 124.931 237.825 128.64 241.784 128.64Z" fill="#2F2E41"/>
<path d="M236.303 144.832C236.303 148.575 230.451 151.61 223.232 151.61C216.014 151.61 210.162 148.575 210.162 144.832C210.162 141.59 214.551 138.879 220.416 138.216C221.35 138.106 222.29 138.052 223.232 138.054C224.81 138.05 226.384 138.201 227.925 138.506C232.824 139.481 236.303 141.948 236.303 144.832Z" fill="#2F2E41"/>
<path d="M204.47 126.569C208.428 126.569 211.637 122.86 211.637 118.284C211.637 113.709 208.428 110 204.47 110C200.511 110 197.302 113.709 197.302 118.284C197.302 122.86 200.511 126.569 204.47 126.569Z" stroke="#3F3D56" stroke-miterlimit="10"/>
<path d="M243.471 126.757C247.429 126.757 250.638 123.048 250.638 118.473C250.638 113.897 247.429 110.188 243.471 110.188C239.512 110.188 236.303 113.897 236.303 118.473C236.303 123.048 239.512 126.757 243.471 126.757Z" stroke="#3F3D56" stroke-miterlimit="10"/>
<path d="M224.919 149.727C232.138 149.727 237.989 146.693 237.989 142.949C237.989 139.206 232.138 136.171 224.919 136.171C217.7 136.171 211.848 139.206 211.848 142.949C211.848 146.693 217.7 149.727 224.919 149.727Z" stroke="#3F3D56" stroke-miterlimit="10"/>
<path d="M228.081 139.071C228.085 139.544 227.886 140.001 227.525 140.348C227.354 140.514 227.147 140.647 226.916 140.738C226.686 140.83 226.436 140.877 226.184 140.878H221.968C221.448 140.862 220.957 140.663 220.601 140.324C220.246 139.986 220.055 139.535 220.07 139.071C220.068 138.704 220.188 138.344 220.416 138.039C221.349 137.921 222.29 137.864 223.232 137.866C224.812 137.861 226.388 138.023 227.925 138.348C228.029 138.577 228.082 138.823 228.081 139.071Z" fill="white"/>
<path d="M204.469 117.908C205.634 117.908 206.578 117.065 206.578 116.025C206.578 114.985 205.634 114.142 204.469 114.142C203.305 114.142 202.361 114.985 202.361 116.025C202.361 117.065 203.305 117.908 204.469 117.908Z" fill="white"/>
<path d="M243.682 117.908C244.846 117.908 245.79 117.065 245.79 116.025C245.79 114.985 244.846 114.142 243.682 114.142C242.518 114.142 241.574 114.985 241.574 116.025C241.574 117.065 242.518 117.908 243.682 117.908Z" fill="white"/>
<path opacity="0.3" d="M245.79 135.606C246.954 135.606 247.898 134.763 247.898 133.723C247.898 132.684 246.954 131.841 245.79 131.841C244.626 131.841 243.682 132.684 243.682 133.723C243.682 134.763 244.626 135.606 245.79 135.606Z" fill="#6930C3"/>
<path opacity="0.3" d="M194.35 135.606C195.515 135.606 196.459 134.763 196.459 133.723C196.459 132.684 195.515 131.841 194.35 131.841C193.186 131.841 192.242 132.684 192.242 133.723C192.242 134.763 193.186 135.606 194.35 135.606Z" fill="#6930C3"/>
</g>
<defs>
<clipPath id="clip0">
<rect width="453" height="220" fill="white"/>
</clipPath>
</defs>
</svg>
