<svg width="25" height="25" viewBox="0 0 25 25" fill="none" xmlns="http://www.w3.org/2000/svg">
<path d="M22.2534 17.1069C22.2447 17.0827 22.2313 17.0604 22.2139 17.0413C22.1965 17.0222 22.1755 17.0068 22.1521 16.9959C22.1287 16.985 22.1034 16.9789 22.0777 16.9778C22.0519 16.9768 22.0261 16.9808 22.002 16.9897L20.5078 17.5342V4.39453C20.5078 3.47656 19.7656 2.73438 18.8477 2.73438H6.15234C5.23438 2.73438 4.49219 3.47656 4.49219 4.39453V17.5342L2.99561 16.9897C2.97363 16.9824 2.95166 16.9775 2.92969 16.9775C2.82227 16.9775 2.73438 17.0654 2.73438 17.1729V18.6279C2.73438 18.7085 2.78564 18.7817 2.86377 18.811L12.2314 22.2192C12.4048 22.2827 12.5928 22.2827 12.7661 22.2192L22.1362 18.8135C22.2144 18.7842 22.2656 18.7109 22.2656 18.6304V17.1753C22.2656 17.1509 22.2607 17.1289 22.2534 17.1069ZM12.5 20.4468L6.25 18.1738V4.49219H18.75V18.1738L12.5 20.4468ZM16.1279 7.61719H14.7974C14.7241 7.61719 14.6558 7.65869 14.624 7.72461L12.5562 11.8457H12.4756L10.4077 7.72461C10.3915 7.69247 10.3668 7.66544 10.3362 7.64648C10.3056 7.62752 10.2704 7.61739 10.2344 7.61719H8.87451C8.84277 7.61719 8.81104 7.62451 8.78174 7.6416C8.68652 7.69287 8.65234 7.8125 8.70361 7.90527L11.2402 12.583H9.84863C9.74121 12.583 9.65332 12.6709 9.65332 12.7783V13.4399C9.65332 13.5474 9.74121 13.6353 9.84863 13.6353H11.7041V14.5874H9.84863C9.74121 14.5874 9.65332 14.6753 9.65332 14.7827V15.4443C9.65332 15.5518 9.74121 15.6396 9.84863 15.6396H11.7041V17.1875C11.7041 17.2949 11.792 17.3828 11.8994 17.3828H13.1177C13.2251 17.3828 13.313 17.2949 13.313 17.1875V15.6372H15.1758C15.2832 15.6372 15.3711 15.5493 15.3711 15.4419V14.7803C15.3711 14.6729 15.2832 14.585 15.1758 14.585H13.313V13.6328H15.1758C15.2832 13.6328 15.3711 13.5449 15.3711 13.4375V12.7759C15.3711 12.6685 15.2832 12.5806 15.1758 12.5806H13.7695L16.3013 7.90283C16.3159 7.87354 16.3257 7.8418 16.3257 7.81006C16.3232 7.70508 16.2354 7.61719 16.1279 7.61719Z" fill="#343A40"/>
</svg>
