<svg width="123" height="121" viewBox="0 0 123 121" fill="none" xmlns="http://www.w3.org/2000/svg">
<g clip-path="url(#clip0)">
<path d="M31.1343 109.845H58.4249V78.8391H19.7952C19.7952 78.8391 18.4499 89.6157 18.4499 93.3969C17.8733 109.656 31.1343 109.845 31.1343 109.845Z" fill="#6930C3"/>
<path d="M37.4766 65.7936L49.9688 72.978L33.4406 44.2405L0 44.4295L12.4922 51.6139L2.49844 68.6295C1.5375 70.3311 0.384375 73.167 1.92188 75.6249L19.0266 104.551C22.1016 109.845 27.4828 109.656 31.3266 109.656C31.3266 109.656 13.8375 106.064 24.9844 87.1577L37.4766 65.7936Z" fill="#6930C3"/>
<path d="M120.118 61.8233L106.472 38.5686L79.1816 54.0717L98.4004 86.9686C98.4004 86.9686 108.586 82.6202 111.854 80.9186C126.46 73.167 120.118 61.8233 120.118 61.8233Z" fill="#6930C3"/>
<path d="M78.0285 78.461V64.2813L60.9238 92.6407L78.0285 121V106.82H98.016C100.13 106.82 103.013 106.253 104.55 103.795L121.655 74.8688C124.73 69.575 122.039 65.2266 120.118 61.8235C120.118 61.8235 125.691 78.461 103.397 78.461H78.0285Z" fill="#6930C3"/>
<path d="M34.5936 7.75136L20.9482 31.006L48.2389 46.5092L67.4576 13.6123C67.4576 13.6123 58.617 6.99511 55.3498 5.10448C41.5123 -3.21427 34.5936 7.75136 34.5936 7.75136Z" fill="#6930C3"/>
<path d="M70.3406 35.3547L57.8484 42.5391L91.2891 42.9172L107.817 14.1797L95.325 21.3641L85.3313 4.34844C84.1781 2.26875 82.2562 0 79.3734 0H45.3563C39.2063 0 36.5156 4.5375 34.5938 7.75156C34.5938 7.75156 46.5094 -5.29375 57.6562 13.6125L70.3406 35.3547Z" fill="#6930C3"/>
</g>
<defs>
<clipPath id="clip0">
<rect width="123" height="121" fill="white"/>
</clipPath>
</defs>
</svg>
