<svg width="139" height="126" viewBox="0 0 139 126" fill="none" xmlns="http://www.w3.org/2000/svg">
<path d="M76.2765 69.2309C78.7296 69.231 81.0948 70.1051 82.9108 71.6828C84.7267 73.2605 85.8633 75.4286 86.0988 77.7644L86.1449 78.6643V79.7342C83.9972 78.7605 81.5871 78.4464 79.2453 78.8352C76.9036 79.2239 74.7451 80.2963 73.0659 81.9053L56.6186 97.6445C55.5494 98.6671 54.7012 99.8812 54.1225 101.217C53.5439 102.554 53.246 103.986 53.246 105.432C53.246 106.879 53.5439 108.311 54.1225 109.647C54.7012 110.983 55.5494 112.197 56.6186 113.22L61.112 117.506C55.2107 118.972 49.0067 119.563 43.3818 119.563C25.4739 119.563 1.70418 113.547 0.651548 92.6917L0.618652 91.2506V78.6643C0.61877 76.3177 1.5326 74.0553 3.18193 72.3182C4.83127 70.5811 7.09785 69.4939 9.53969 69.2687L10.4871 69.2246L76.2765 69.2309Z" fill="#6930C3"/>
<path d="M84.6965 93.0321L76.6767 100.71H121.927L113.9 93.0321C113.002 92.1415 112.505 90.949 112.517 89.7115C112.529 88.474 113.048 87.2904 113.964 86.4157C114.879 85.541 116.117 85.0452 117.411 85.035C118.704 85.0249 119.951 85.5012 120.881 86.3613L137.328 102.107C138.252 102.992 138.771 104.191 138.771 105.442C138.771 106.693 138.252 107.893 137.328 108.778L120.881 124.504C119.95 125.363 118.703 125.839 117.409 125.827C116.116 125.816 114.878 125.319 113.964 124.443C113.049 123.568 112.531 122.384 112.52 121.146C112.51 119.909 113.008 118.717 113.907 117.827L121.933 110.149H76.6702L84.6965 117.827C85.1812 118.259 85.5701 118.78 85.8398 119.359C86.1094 119.938 86.2545 120.563 86.2662 121.197C86.2778 121.831 86.156 122.46 85.9078 123.048C85.6596 123.636 85.2903 124.169 84.8217 124.618C84.3532 125.066 83.7951 125.419 83.1807 125.656C82.5663 125.894 81.9082 126.01 81.2457 125.999C80.5831 125.988 79.9298 125.849 79.3245 125.591C78.7192 125.333 78.1745 124.962 77.7228 124.498L61.2754 108.778C60.8169 108.339 60.4532 107.819 60.205 107.246C59.9568 106.673 59.8291 106.059 59.8291 105.439C59.8291 104.819 59.9568 104.205 60.205 103.632C60.4532 103.059 60.8169 102.539 61.2754 102.101L77.7228 86.3613C78.1745 85.8976 78.7192 85.5257 79.3245 85.2677C79.9298 85.0098 80.5831 84.871 81.2457 84.8599C81.9082 84.8487 82.5663 84.9653 83.1807 85.2026C83.7951 85.44 84.3532 85.7934 84.8217 86.2415C85.2903 86.6897 85.6596 87.2236 85.9078 87.8113C86.156 88.399 86.2778 89.0285 86.2662 89.6622C86.2545 90.296 86.1094 90.921 85.8398 91.4999C85.5701 92.0789 85.1812 92.6 84.6965 93.0321Z" fill="#6930C3"/>
<path d="M125.538 81.9116L132.196 88.2928V78.6643L132.15 77.7518C131.913 75.4172 130.776 73.2506 128.96 71.6742C127.144 70.0978 124.78 69.2246 122.328 69.2246H89.354L90.0974 70.2441C91.7422 72.6795 92.7224 75.5555 92.7224 78.6643V91.2506L92.6764 93.0126C92.6534 93.481 92.6205 93.9489 92.5777 94.416H106.986C105.818 92.0697 105.556 89.4043 106.245 86.891C106.934 84.3776 108.53 82.1782 110.75 80.6816C112.971 79.185 115.673 78.4876 118.379 78.7127C121.085 78.9378 123.621 80.0708 125.538 81.9116Z" fill="#6930C3"/>
<path d="M43.3821 0C51.2339 0 58.7641 2.98362 64.3162 8.29449C69.8683 13.6054 72.9874 20.8084 72.9874 28.3192C72.9874 35.8299 69.8683 43.0329 64.3162 48.3438C58.7641 53.6547 51.2339 56.6383 43.3821 56.6383C35.5303 56.6383 28.0001 53.6547 22.448 48.3438C16.896 43.0329 13.7769 35.8299 13.7769 28.3192C13.7769 20.8084 16.896 13.6054 22.448 8.29449C28.0001 2.98362 35.5303 0 43.3821 0Z" fill="#6930C3"/>
<path d="M102.592 12.5864C108.699 12.5864 114.556 14.907 118.874 19.0377C123.193 23.1684 125.619 28.7708 125.619 34.6124C125.619 40.4541 123.193 46.0565 118.874 50.1872C114.556 54.3178 108.699 56.6384 102.592 56.6384C96.4853 56.6384 90.6284 54.3178 86.3102 50.1872C81.9919 46.0565 79.5659 40.4541 79.5659 34.6124C79.5659 28.7708 81.9919 23.1684 86.3102 19.0377C90.6284 14.907 96.4853 12.5864 102.592 12.5864Z" fill="#6930C3"/>
</svg>
