<svg width="137" height="132" viewBox="0 0 137 132" fill="none" xmlns="http://www.w3.org/2000/svg">
<path d="M68.5 132C30.6675 132 0 102.452 0 66C0 29.5482 30.6675 0 68.5 0C106.333 0 137 29.5482 137 66C137 102.452 106.333 132 68.5 132ZM44.525 79.2V92.4H61.65V105.6H75.35V92.4H82.2C86.7418 92.4 91.0976 90.6616 94.3092 87.5673C97.5208 84.4729 99.325 80.2761 99.325 75.9C99.325 71.5239 97.5208 67.3271 94.3092 64.2327C91.0976 61.1384 86.7418 59.4 82.2 59.4H54.8C53.8916 59.4 53.0205 59.0523 52.3782 58.4335C51.7358 57.8146 51.375 56.9752 51.375 56.1C51.375 55.2248 51.7358 54.3854 52.3782 53.7665C53.0205 53.1477 53.8916 52.8 54.8 52.8H92.475V39.6H75.35V26.4H61.65V39.6H54.8C50.2582 39.6 45.9024 41.3384 42.6908 44.4327C39.4792 47.5271 37.675 51.7239 37.675 56.1C37.675 60.4761 39.4792 64.6729 42.6908 67.7673C45.9024 70.8616 50.2582 72.6 54.8 72.6H82.2C83.1084 72.6 83.9795 72.9477 84.6218 73.5665C85.2642 74.1854 85.625 75.0248 85.625 75.9C85.625 76.7752 85.2642 77.6146 84.6218 78.2335C83.9795 78.8523 83.1084 79.2 82.2 79.2H44.525Z" fill="#6930C3"/>
</svg>
